<?xml version="1.0" encoding="UTF-8"?>
<svg version="1.1" xmlns="http://www.w3.org/2000/svg" width="209" height="54">
<path d="M0 0 C68.97 0 137.94 0 209 0 C209 17.82 209 35.64 209 54 C140.03 54 71.06 54 0 54 C0 36.18 0 18.36 0 0 Z " fill="#FCF7F8" transform="translate(0,0)"/>
<path d="M0 0 C5.61 0 11.22 0 17 0 C17.33 0.99 17.66 1.98 18 3 C19.98 2.34 21.96 1.68 24 1 C24 1.99 24 2.98 24 4 C22.35 4.66 20.7 5.32 19 6 C19 6.33 19 6.66 19 7 C20.423125 7.1546875 20.423125 7.1546875 21.875 7.3125 C25 8 25 8 27 11 C27.33 9.68 27.66 8.36 28 7 C29.32 7 30.64 7 32 7 C32.53761621 11.94606916 31.85952857 14.62429093 29.4375 19 C27.04308961 23.43134542 26.5761734 26.01660689 28 31 C28.33 31.99 28.66 32.98 29 34 C26.91449286 36.69097695 25.26444827 38.72333049 21.83984375 39.47265625 C17.75662092 39.6294411 15.56401679 39.36001072 12.0625 37.125 C11.381875 36.42375 10.70125 35.7225 10 35 C9.34 34.34 8.68 33.68 8 33 C6.68 33 5.36 33 4 33 C3.34 33.99 2.68 34.98 2 36 C-0.42869909 32.35695136 -0.25675675 29.69277661 -0.1953125 25.48828125 C-0.1924826 24.76005661 -0.18965271 24.03183197 -0.18673706 23.28153992 C-0.17555257 20.95835863 -0.15045166 18.63556453 -0.125 16.3125 C-0.11496794 14.7363337 -0.10584248 13.16016135 -0.09765625 11.58398438 C-0.07732135 7.72238749 -0.03817094 3.86162655 0 0 Z " fill="#FCF9F9" transform="translate(0,0)"/>
<path d="M0 0 C2.5 1.4375 2.5 1.4375 5 4 C5.86959506 8.67723947 5.64951495 12.02572757 3 16 C2.34 16 1.68 16 1 16 C2.52206009 18.62901288 3.84365964 20.84365964 6 23 C10.70531076 23.64125474 14.82791014 23.56260313 19.125 21.5 C19.74375 21.005 20.3625 20.51 21 20 C19.35348399 25.43350283 16.06068469 30.09125791 11.21484375 33.11328125 C4.70263304 35.93479349 -2.71498588 36.1558383 -9.375 33.8125 C-14.45684205 30.30360906 -17.76239548 26.15618498 -21 21 C-20.67 20.34 -20.34 19.68 -20 19 C-19.360625 19.66 -18.72125 20.32 -18.0625 21 C-14.01549096 23.64294468 -10.72206118 23.91622083 -6 23 C-3.43009002 21.18735352 -3.43009002 21.18735352 -2 19 C-2.350625 18.319375 -2.70125 17.63875 -3.0625 16.9375 C-5.02448529 10.7899461 -2.60337509 5.54632084 0 0 Z " fill="#B82432" transform="translate(30,15)"/>
<path d="M0 0 C3 1.8125 3 1.8125 5 5 C5.86610476 10.11231748 5.75567659 14.42567376 3.5 19.125 C0.11903624 21.66072282 -2.78343336 22.44429032 -7 22 C-10.32478579 19.97621735 -11.8408692 18.2386962 -14 15 C-14.48384204 10.08093925 -14.51355236 7.94151265 -12.125 3.5625 C-8.70838883 -0.55753112 -5.15219585 -0.8176525 0 0 Z " fill="#BC323F" transform="translate(100,13)"/>
<path d="M0 0 C2.64 0 5.28 0 8 0 C9.65 4.29 11.3 8.58 13 13 C15.27694716 10.72305284 15.92947387 8.93161848 17.0625 5.9375 C18.90277778 1.09722222 18.90277778 1.09722222 20 0 C22.67058851 -0.14115161 25.32432238 -0.04247107 28 0 C28 0.66 28 1.32 28 2 C27.01 2.495 27.01 2.495 26 3 C25.68758545 5.71446979 25.48663408 8.33909361 25.375 11.0625 C25.33632812 11.82111328 25.29765625 12.57972656 25.2578125 13.36132812 C25.16326438 15.24047195 25.08053244 17.12020336 25 19 C25.99 19 26.98 19 28 19 C28 19.66 28 20.32 28 21 C25.03 21 22.06 21 19 21 C19 20.34 19 19.68 19 19 C19.99 19 20.98 19 22 19 C21.67 15.04 21.34 11.08 21 7 C19.02 11.62 17.04 16.24 15 21 C14.01 21 13.02 21 12 21 C10.02 16.38 8.04 11.76 6 7 C5.67 10.96 5.34 14.92 5 19 C5.99 19 6.98 19 8 19 C8 19.66 8 20.32 8 21 C5.36 21 2.72 21 0 21 C0 20.34 0 19.68 0 19 C0.66 19 1.32 19 2 19 C2 13.39 2 7.78 2 2 C1.34 2 0.68 2 0 2 C0 1.34 0 0.68 0 0 Z " fill="#B92735" transform="translate(108,13)"/>
<path d="M0 0 C1.65 0 3.3 0 5 0 C6.00605593 2.60197202 7.00502525 5.20629362 8 7.8125 C8.42925781 8.91948242 8.42925781 8.91948242 8.8671875 10.04882812 C9.13789063 10.76103516 9.40859375 11.47324219 9.6875 12.20703125 C9.93886719 12.8616333 10.19023437 13.51623535 10.44921875 14.19067383 C11 16 11 16 11 19 C11.66 19 12.32 19 13 19 C13 19.66 13 20.32 13 21 C10.69 21 8.38 21 6 21 C6.33 19.35 6.66 17.7 7 16 C5.5199159 16.11362262 4.04089926 16.24122908 2.5625 16.375 C1.73878906 16.44460937 0.91507813 16.51421875 0.06640625 16.5859375 C-0.61550781 16.72257812 -1.29742187 16.85921875 -2 17 C-2.33 17.66 -2.66 18.32 -3 19 C-2.34 19 -1.68 19 -1 19 C-1 19.99 -1 20.98 -1 22 C-3.31 22 -5.62 22 -8 22 C-7.33579866 19.1151427 -6.45314784 16.42619451 -5.37109375 13.671875 C-5.05849609 12.87265625 -4.74589844 12.0734375 -4.42382812 11.25 C-3.9355957 10.0125 -3.9355957 10.0125 -3.4375 8.75 C-3.10814453 7.90953125 -2.77878906 7.0690625 -2.43945312 6.203125 C-1.62847805 4.13455089 -0.81525868 2.06688878 0 0 Z " fill="#B31625" transform="translate(145,13)"/>
<path d="M0 0 C2.26171875 -0.05859375 2.26171875 -0.05859375 5 1 C6.72511926 3.80479646 7.73602894 6.83640789 8.8125 9.9375 C9.12380859 10.77474609 9.43511719 11.61199219 9.75585938 12.47460938 C12 18.60530563 12 18.60530563 12 21 C10.02 21 8.04 21 6 21 C6.33 19.35 6.66 17.7 7 16 C4.03 16.33 1.06 16.66 -2 17 C-2 18.32 -2 19.64 -2 21 C-3.98 21 -5.96 21 -8 21 C-5.72564796 13.81783567 -2.96415819 6.9241798 0 0 Z " fill="#C03D4A" transform="translate(197,13)"/>
<path d="M0 0 C0.7734375 -0.00515625 1.546875 -0.0103125 2.34375 -0.015625 C4.5 0.25 4.5 0.25 7.5 2.25 C7.17 3.9 6.84 5.55 6.5 7.25 C5.51 6.92 4.52 6.59 3.5 6.25 C3.5 5.26 3.5 4.27 3.5 3.25 C1.19 3.25 -1.12 3.25 -3.5 3.25 C-3.5 4.9 -3.5 6.55 -3.5 8.25 C-2.241875 8.518125 -0.98375 8.78625 0.3125 9.0625 C2.65893716 9.66991104 4.45453279 10.22382191 6.5625 11.4375 C8.17754909 14.55992824 7.39365482 16.97326565 6.5 20.25 C4.04943124 22.41781082 2.22112948 22.26956986 -1.0625 22.5 C-4.5 22.25 -4.5 22.25 -7.5 20.25 C-7.6875 17.625 -7.6875 17.625 -7.5 15.25 C-6.51 15.25 -5.52 15.25 -4.5 15.25 C-4.17 16.24 -3.84 17.23 -3.5 18.25 C-1.52 18.25 0.46 18.25 2.5 18.25 C2.5 16.93 2.5 15.61 2.5 14.25 C-0.8 12.6 -4.1 10.95 -7.5 9.25 C-7.6875 5.875 -7.6875 5.875 -7.5 2.25 C-4.377998 0.16866533 -3.56733011 -0.0237822 0 0 Z " fill="#B72231" transform="translate(76.5,12.75)"/>
<path d="M0 0 C2.60186108 2.60186108 2.29810177 3.82354355 2.3125 7.4375 C2.33763672 8.88962891 2.33763672 8.88962891 2.36328125 10.37109375 C2 13 2 13 0.671875 14.8515625 C-1 16 -1 16 -4.0625 15.9375 C-7 15 -7 15 -8.375 13.4375 C-9.43917469 9.2872187 -10.05206618 4.87033987 -7.875 1 C-5.14368353 -0.45670212 -3.03989923 -0.32339354 0 0 Z " fill="#FBF6F6" transform="translate(99,16)"/>
<path d="M0 0 C2.64 0 5.28 0 8 0 C8 0.66 8 1.32 8 2 C7.34 2 6.68 2 6 2 C7.32 4.31 8.64 6.62 10 9 C12.77000825 5.67913229 12.77000825 5.67913229 15 2 C14.34 2 13.68 2 13 2 C13 1.34 13 0.68 13 0 C15.64 0 18.28 0 21 0 C21 0.66 21 1.32 21 2 C20.13375 2.8353125 20.13375 2.8353125 19.25 3.6875 C14.89233601 8.16621021 12.61189853 12.72804003 12 19 C12.66 19 13.32 19 14 19 C14 19.66 14 20.32 14 21 C11.36 21 8.72 21 6 21 C6 20.34 6 19.68 6 19 C6.66 19 7.32 19 8 19 C6.98747761 13.00480165 5.58822923 8.90391328 2 4 C2 3.34 2 2.68 2 2 C1.34 2 0.68 2 0 2 C0 1.34 0 0.68 0 0 Z " fill="#B72331" transform="translate(170,13)"/>
<path d="M0 0 C2.8290723 2.8290723 3.37611108 3.38144425 4 7 C5.32 7 6.64 7 8 7 C8 7.99 8 8.98 8 10 C8.66 9.67 9.32 9.34 10 9 C10 10.32 10 11.64 10 13 C10.7763932 16.0745356 10.7763932 16.0745356 13 18 C8.71 18 4.42 18 0 18 C0 12.06 0 6.12 0 0 Z " fill="#FCF8F8" transform="translate(0,36)"/>
<path d="M0 0 C2.64 0 5.28 0 8 0 C8 0.66 8 1.32 8 2 C7.34 2 6.68 2 6 2 C6 7.61 6 13.22 6 19 C6.66 19 7.32 19 8 19 C8 19.66 8 20.32 8 21 C5.36 21 2.72 21 0 21 C0 20.34 0 19.68 0 19 C0.66 19 1.32 19 2 19 C2 13.39 2 7.78 2 2 C1.34 2 0.68 2 0 2 C0 1.34 0 0.68 0 0 Z " fill="#B82230" transform="translate(160,13)"/>
<path d="M0 0 C2.26171875 -0.05859375 2.26171875 -0.05859375 5 1 C6.72511926 3.80479646 7.73602894 6.83640789 8.8125 9.9375 C9.12380859 10.77474609 9.43511719 11.61199219 9.75585938 12.47460938 C12 18.60530563 12 18.60530563 12 21 C10.02 21 8.04 21 6 21 C6 19.35 6 17.7 6 16 C3.36 15.67 0.72 15.34 -2 15 C-1.67 14.34 -1.34 13.68 -1 13 C0.98 13 2.96 13 5 13 C4.67 12.2575 4.34 11.515 4 10.75 C3 8 3 8 3 4 C2.01 3.67 1.02 3.34 0 3 C0 2.01 0 1.02 0 0 Z " fill="#B7202E" transform="translate(197,13)"/>
<path d="M0 0 C3 1.9375 3 1.9375 5 5 C5.39265524 8.04945236 5.2994658 10.94544881 5 14 C4.01 14 3.02 14 2 14 C1.86722656 13.36191406 1.73445313 12.72382813 1.59765625 12.06640625 C1.33275391 10.82697266 1.33275391 10.82697266 1.0625 9.5625 C0.88847656 8.73878906 0.71445313 7.91507813 0.53515625 7.06640625 C0.19247006 5.02338796 0.19247006 5.02338796 -1 4 C-3.95817107 3.74994614 -3.95817107 3.74994614 -7 4 C-9.39763185 6.39763185 -9.34280586 7.33273498 -9.625 10.625 C-9.69976562 11.44226562 -9.77453125 12.25953125 -9.8515625 13.1015625 C-9.90054688 13.72804688 -9.94953125 14.35453125 -10 15 C-10.33 15 -10.66 15 -11 15 C-11.27585566 13.06601192 -11.51987415 11.12746091 -11.75 9.1875 C-11.88921875 8.10855469 -12.0284375 7.02960937 -12.171875 5.91796875 C-12 3 -12 3 -10.26171875 1.14453125 C-6.85617084 -0.57882892 -3.67612913 -0.74978475 0 0 Z " fill="#B92836" transform="translate(100,13)"/>
<path d="M0 0 C2.64 0 5.28 0 8 0 C8 1.32 8 2.64 8 4 C7.01 4.495 7.01 4.495 6 5 C5.52998967 8.27555608 5.52998967 8.27555608 5.375 12.0625 C5.30023438 13.35285156 5.22546875 14.64320312 5.1484375 15.97265625 C5.09945312 16.97167969 5.05046875 17.97070312 5 19 C5.99 19 6.98 19 8 19 C8 19.66 8 20.32 8 21 C5.36 21 2.72 21 0 21 C0 20.34 0 19.68 0 19 C0.66 19 1.32 19 2 19 C2 13.39 2 7.78 2 2 C1.34 2 0.68 2 0 2 C0 1.34 0 0.68 0 0 Z " fill="#B41727" transform="translate(108,13)"/>
<path d="M0 0 C6.63876808 -0.23616171 11.94290748 -0.02854626 18 3 C17.67 3.99 17.34 4.98 17 6 C15.68 6 14.36 6 13 6 C12.67 6.99 12.34 7.98 12 9 C12.66 9.33 13.32 9.66 14 10 C13.34 10 12.68 10 12 10 C12 10.99 12 11.98 12 13 C11.01 13 10.02 13 9 13 C7.875 7.375 7.875 7.375 9 4 C5.7 3.67 2.4 3.34 -1 3 C-0.67 2.01 -0.34 1.02 0 0 Z " fill="#E1A8AC" transform="translate(27,0)"/>
<path d="M0 0 C2.64 0 5.28 0 8 0 C8 0.66 8 1.32 8 2 C7.01 2.495 7.01 2.495 6 3 C5.68758545 5.71446979 5.48663408 8.33909361 5.375 11.0625 C5.33632812 11.82111328 5.29765625 12.57972656 5.2578125 13.36132812 C5.16326438 15.24047195 5.08053244 17.12020336 5 19 C5.99 19 6.98 19 8 19 C8 19.66 8 20.32 8 21 C5.03 21 2.06 21 -1 21 C-1 20.34 -1 19.68 -1 19 C-0.01 19 0.98 19 2 19 C2.05384521 16.70858714 2.09272087 14.41681812 2.125 12.125 C2.14820313 10.84882813 2.17140625 9.57265625 2.1953125 8.2578125 C2.35641524 4.91406662 2.35641524 4.91406662 0 3 C0 2 0 1 0 0 Z " fill="#B51928" transform="translate(128,13)"/>
<path d="M0 0 C2.475 0.99 2.475 0.99 5 2 C3.125 7.75 3.125 7.75 2 10 C0.68 9.67 -0.64 9.34 -2 9 C-2 9.66 -2 10.32 -2 11 C-1.01 11.33 -0.02 11.66 1 12 C0.67 12.99 0.34 13.98 0 15 C-0.99 15 -1.98 15 -3 15 C-3 15.66 -3 16.32 -3 17 C-4.65 16.67 -6.3 16.34 -8 16 C-7.34 15.01 -6.68 14.02 -6 13 C-5.7834375 12.01 -5.7834375 12.01 -5.5625 11 C-5 9 -5 9 -3.5625 7.625 C-1.39867306 5.37461998 -0.85484398 2.95907532 0 0 Z " fill="#D6868B" transform="translate(56,32)"/>
<path d="M0 0 C1.66666667 0 3.33333333 0 5 0 C5.33 3.63 5.66 7.26 6 11 C2.65747276 11.07427838 0.1964086 11.06546953 -3 10 C-2.01 6.7 -1.02 3.4 0 0 Z " fill="#BD3340" transform="translate(144,15)"/>
<path d="M0 0 C0.99 0.33 1.98 0.66 3 1 C3 1.99 3 2.98 3 4 C3.598125 4.2475 4.19625 4.495 4.8125 4.75 C8.75559601 7.00319772 9.82635736 9.45165483 11.1875 13.75 C11.455625 14.8225 11.72375 15.895 12 17 C11.01 17 10.02 17 9 17 C6 11.375 6 11.375 6 8 C5.401875 7.731875 4.80375 7.46375 4.1875 7.1875 C2.02775192 6.01506533 0.64209744 4.80630718 -1 3 C-0.67 2.01 -0.34 1.02 0 0 Z " fill="#DC9A9E" transform="translate(46,4)"/>
<path d="M0 0 C4.62 1.32 9.24 2.64 14 4 C13.34 4.66 12.68 5.32 12 6 C11.34 5.67 10.68 5.34 10 5 C10 5.66 10 6.32 10 7 C6.7 7 3.4 7 0 7 C-1.125 2.25 -1.125 2.25 0 0 Z " fill="#F7EAEA" transform="translate(18,47)"/>
<path d="M0 0 C3.3907437 1.45317587 5.63402118 3.16082541 8 6 C9.25 9.25 9.25 9.25 10 12 C8.02 12.66 6.04 13.32 4 14 C4 13.34 4 12.68 4 12 C4.66 12 5.32 12 6 12 C6 11.01 6 10.02 6 9 C5.34 9 4.68 9 4 9 C3.34 7.68 2.68 6.36 2 5 C1.34 5 0.68 5 0 5 C-0.33 4.01 -0.66 3.02 -1 2 C-0.67 1.34 -0.34 0.68 0 0 Z " fill="#D2767D" transform="translate(41,10)"/>
<path d="M0 0 C1.99954746 -0.04254356 4.00041636 -0.04080783 6 0 C7 1 7 1 7.1875 3.4375 C7 6 7 6 5 8 C2.375 8.125 2.375 8.125 0 8 C0 5.36 0 2.72 0 0 Z " fill="#DE9CA3" transform="translate(97,40)"/>
<path d="M0 0 C0.99 0.33 1.98 0.66 3 1 C2.67 1.66 2.34 2.32 2 3 C2.99 3 3.98 3 5 3 C4.67 2.01 4.34 1.02 4 0 C5.32 0.33 6.64 0.66 8 1 C8 3.31 8 5.62 8 8 C6.68 8 5.36 8 4 8 C3.67 7.34 3.34 6.68 3 6 C3 6.66 3 7.32 3 8 C1.68 8 0.36 8 -1 8 C-0.67 5.36 -0.34 2.72 0 0 Z " fill="#C2414D" transform="translate(171,40)"/>
<path d="M0 0 C2 0 2 0 3.625 1.375 C5 3 5 3 5 5 C5.99 5.33 6.98 5.66 8 6 C8 6.99 8 7.98 8 9 C4.6875 8.8125 4.6875 8.8125 1 8 C-0.9375 5.4375 -0.9375 5.4375 -2 3 C-1.34 2.01 -0.68 1.02 0 0 Z " fill="#DA8F94" transform="translate(10,45)"/>
<path d="M0 0 C5.94 0.99 5.94 0.99 12 2 C12 2.33 12 2.66 12 3 C11.04287109 3.07347656 11.04287109 3.07347656 10.06640625 3.1484375 C9.24011719 3.22320313 8.41382813 3.29796875 7.5625 3.375 C6.32693359 3.47941406 6.32693359 3.47941406 5.06640625 3.5859375 C4.38449219 3.72257812 3.70257813 3.85921875 3 4 C2.67 4.66 2.34 5.32 2 6 C2.66 6 3.32 6 4 6 C4 6.99 4 7.98 4 9 C1.69 9 -0.62 9 -3 9 C-2.28100082 5.76450369 -1.26436876 3.1609219 0 0 Z " fill="#C44B56" transform="translate(140,26)"/>
<path d="M0 0 C0.99 1.32 1.98 2.64 3 4 C2.21625 4.763125 1.4325 5.52625 0.625 6.3125 C-2.07257717 8.90891805 -2.07257717 8.90891805 -4 12 C-5.32 11.34 -6.64 10.68 -8 10 C-4 2.42857143 -4 2.42857143 0 0 Z " fill="#D57F85" transform="translate(17,11)"/>
<path d="M0 0 C0 0.99 0 1.98 0 3 C-2.90600261 4.25664978 -4.79604584 5 -8 5 C-8 5.66 -8 6.32 -8 7 C-12.38461538 10 -12.38461538 10 -15 10 C-14.06856932 6.8670059 -13.39960881 5.29970661 -10.75 3.3125 C-3.80952381 0 -3.80952381 0 0 0 Z " fill="#D58389" transform="translate(24,1)"/>
<path d="M0 0 C1.99954746 -0.04254356 4.00041636 -0.04080783 6 0 C7 1 7 1 7.0625 4.5625 C7.041875 5.696875 7.02125 6.83125 7 8 C6.34 8 5.68 8 5 8 C5 7.01 5 6.02 5 5 C4.34 5 3.68 5 3 5 C3.33 5.99 3.66 6.98 4 8 C2.68 8 1.36 8 0 8 C0 5.36 0 2.72 0 0 Z " fill="#CA5B65" transform="translate(202,40)"/>
<path d="M0 0 C1.65 0 3.3 0 5 0 C5.69670416 1.78810766 6.38211189 3.58062052 7.0625 5.375 C7.63677734 6.87160156 7.63677734 6.87160156 8.22265625 8.3984375 C9 11 9 11 8 13 C7.01 13 6.02 13 5 13 C3.82428549 9.32589215 3.92633254 5.83070817 4 2 C2.02 2.99 2.02 2.99 0 4 C0 2.68 0 1.36 0 0 Z " fill="#B82432" transform="translate(145,13)"/>
<path d="M0 0 C1.32 0.66 2.64 1.32 4 2 C3.34 3.32 2.68 4.64 2 6 C-1.63 6 -5.26 6 -9 6 C-8.34 5.67 -7.68 5.34 -7 5 C-6.67 4.34 -6.34 3.68 -6 3 C-5.01 3.33 -4.02 3.66 -3 4 C-3 3.34 -3 2.68 -3 2 C-2.01 1.34 -1.02 0.68 0 0 Z " fill="#DE9DA2" transform="translate(46,48)"/>
<path d="M0 0 C0.99 0 1.98 0 3 0 C3.66 2.64 4.32 5.28 5 8 C4.01 8 3.02 8 2 8 C2 7.34 2 6.68 2 6 C1.34 6 0.68 6 0 6 C0 6.66 0 7.32 0 8 C-0.99 8 -1.98 8 -3 8 C-1.125 1.125 -1.125 1.125 0 0 Z " fill="#C44B56" transform="translate(189,40)"/>
<path d="M0 0 C0.99 0.33 1.98 0.66 3 1 C4.1875 4.5625 4.1875 4.5625 5 8 C4.01 8 3.02 8 2 8 C2 7.34 2 6.68 2 6 C1.34 6 0.68 6 0 6 C0 6.66 0 7.32 0 8 C-0.99 8 -1.98 8 -3 8 C-1.125 1.125 -1.125 1.125 0 0 Z " fill="#C34652" transform="translate(130,40)"/>
<path d="M0 0 C1.32 0 2.64 0 4 0 C5.875 2.25 5.875 2.25 7 5 C6.1875 7.3125 6.1875 7.3125 5 9 C4.34 8.67 3.68 8.34 3 8 C3.33 7.34 3.66 6.68 4 6 C3.01 6.33 2.02 6.66 1 7 C-1 4 -1 4 -0.625 1.8125 C-0.41875 1.214375 -0.2125 0.61625 0 0 Z " fill="#DB959A" transform="translate(3,38)"/>
<path d="M0 0 C0.33 0.66 0.66 1.32 1 2 C-0.98 4.64 -2.96 7.28 -5 10 C-5.66 9.67 -6.32 9.34 -7 9 C-6.67 7.68 -6.34 6.36 -6 5 C-7.98 5 -9.96 5 -12 5 C-12 4.67 -12 4.34 -12 4 C-10.95199219 3.81824219 -10.95199219 3.81824219 -9.8828125 3.6328125 C-8.51769531 3.38144531 -8.51769531 3.38144531 -7.125 3.125 C-5.76761719 2.88136719 -5.76761719 2.88136719 -4.3828125 2.6328125 C-1.83494012 2.16955297 -1.83494012 2.16955297 0 0 Z " fill="#BD3340" transform="translate(50,35)"/>
<path d="M0 0 C0.33 0 0.66 0 1 0 C1 2.31 1 4.62 1 7 C1.99 7 2.98 7 4 7 C2.92598892 9.91517292 2.22189824 11.77810176 0 14 C-0.99 14 -1.98 14 -3 14 C-2.125 10.125 -2.125 10.125 -1 9 C-0.76807135 7.48530552 -0.58784762 5.96245438 -0.4375 4.4375 C-0.35371094 3.61121094 -0.26992187 2.78492188 -0.18359375 1.93359375 C-0.12300781 1.29550781 -0.06242187 0.65742188 0 0 Z " fill="#C03F4B" transform="translate(101,20)"/>
<path d="M0 0 C4 1 4 1 5 2 C5.07179964 3.51928038 5.08392007 5.04167482 5.0625 6.5625 C5.05347656 7.38878906 5.04445313 8.21507812 5.03515625 9.06640625 C5.01775391 10.02353516 5.01775391 10.02353516 5 11 C4.01 11 3.02 11 2 11 C1.34 7.37 0.68 3.74 0 0 Z " fill="#B61E2C" transform="translate(100,16)"/>
<path d="M0 0 C1.32 0.33 2.64 0.66 4 1 C4 1.99 4 2.98 4 4 C3.34 4 2.68 4 2 4 C1.34 6.31 0.68 8.62 0 11 C-0.99 10.34 -1.98 9.68 -3 9 C-2.01 6.03 -1.02 3.06 0 0 Z " fill="#BB2D3B" transform="translate(127,14)"/>
<path d="M0 0 C2.64 0 5.28 0 8 0 C8 1.32 8 2.64 8 4 C6.35 4.66 4.7 5.32 3 6 C2.67 5.01 2.34 4.02 2 3 C1.34 2.67 0.68 2.34 0 2 C0 1.34 0 0.68 0 0 Z " fill="#B61F2E" transform="translate(108,13)"/>
<path d="M0 0 C1.32 0.33 2.64 0.66 4 1 C4.33 1.66 4.66 2.32 5 3 C5 2.01 5 1.02 5 0 C5.99 0 6.98 0 8 0 C7.34 2.64 6.68 5.28 6 8 C5.01 8 4.02 8 3 8 C2.01 5.36 1.02 2.72 0 0 Z " fill="#BD3441" transform="translate(142,40)"/>
<path d="M0 0 C0.66 0 1.32 0 2 0 C2.66 2.64 3.32 5.28 4 8 C2.02 8 0.04 8 -2 8 C-1.34 5.36 -0.68 2.72 0 0 Z " fill="#F2D9DB" transform="translate(198,18)"/>
<path d="M0 0 C2.475 0.99 2.475 0.99 5 2 C4.67 3.65 4.34 5.3 4 7 C3.01 6.67 2.02 6.34 1 6 C1 5.01 1 4.02 1 3 C-0.98 3 -2.96 3 -5 3 C-5 2.67 -5 2.34 -5 2 C-3.35 2 -1.7 2 0 2 C0 1.34 0 0.68 0 0 Z " fill="#C34651" transform="translate(79,13)"/>
<path d="M0 0 C0.99 0 1.98 0 3 0 C3.33 0.99 3.66 1.98 4 3 C4.33 2.01 4.66 1.02 5 0 C5.66 0 6.32 0 7 0 C6.34 2.64 5.68 5.28 5 8 C4.01 7.67 3.02 7.34 2 7 C0.8125 3.4375 0.8125 3.4375 0 0 Z " fill="#BD3541" transform="translate(69,40)"/>
<path d="M0 0 C2 3 2 3 2 6 C2.66 6 3.32 6 4 6 C4 6.66 4 7.32 4 8 C1.69 8 -0.62 8 -3 8 C-1.125 2.25 -1.125 2.25 0 0 Z " fill="#BA2B39" transform="translate(154,26)"/>
<path d="M0 0 C2.62386487 3.06117568 3 3.73173127 3 8 C1.35 8 -0.3 8 -2 8 C-1.125 1.125 -1.125 1.125 0 0 Z " fill="#F2D9DB" transform="translate(147,18)"/>
<path d="M0 0 C1.32 0 2.64 0 4 0 C4.17835515 4.54805635 3.99785435 7.8794254 2 12 C1.67 12 1.34 12 1 12 C1.020625 11.13375 1.04125 10.2675 1.0625 9.375 C1.00261044 6.14096352 0.60419067 3.17200103 0 0 Z " fill="#DB959A" transform="translate(28,7)"/>
<path d="M0 0 C0.33 0 0.66 0 1 0 C1 3.3 1 6.6 1 10 C2.32 10 3.64 10 5 10 C5 10.66 5 11.32 5 12 C2.03 12 -0.94 12 -4 12 C-4 11.34 -4 10.68 -4 10 C-2.68 10 -1.36 10 0 10 C0 6.7 0 3.4 0 0 Z " fill="#B82431" transform="translate(131,22)"/>
<path d="M0 0 C2.64 0 5.28 0 8 0 C8 0.66 8 1.32 8 2 C7.34 2 6.68 2 6 2 C5.67 3.65 5.34 5.3 5 7 C3.5 5.625 3.5 5.625 2 4 C2 3.34 2 2.68 2 2 C1.34 2 0.68 2 0 2 C0 1.34 0 0.68 0 0 Z " fill="#B61E2D" transform="translate(170,13)"/>
<path d="M0 0 C0.66 0.33 1.32 0.66 2 1 C2 1.99 2 2.98 2 4 C2.66 4.33 3.32 4.66 4 5 C3.34 5 2.68 5 2 5 C2 5.99 2 6.98 2 8 C1.01 8 0.02 8 -1 8 C-1.625 5.125 -1.625 5.125 -2 2 C-1.34 1.34 -0.68 0.68 0 0 Z " fill="#D48287" transform="translate(37,5)"/>
<path d="M0 0 C0.99 0 1.98 0 3 0 C3.33 0.66 3.66 1.32 4 2 C4.33 1.34 4.66 0.68 5 0 C5.99 0.33 6.98 0.66 8 1 C7.67 1.78375 7.34 2.5675 7 3.375 C5.88133489 5.84332497 5.88133489 5.84332497 6 8 C5.01 8 4.02 8 3 8 C2.690625 7.05125 2.38125 6.1025 2.0625 5.125 C1.12605258 2.13919592 1.12605258 2.13919592 0 0 Z " fill="#BC2F3D" transform="translate(112,40)"/>
<path d="M0 0 C0.99 0 1.98 0 3 0 C3.33 1.98 3.66 3.96 4 6 C5.98 6 7.96 6 10 6 C10 6.33 10 6.66 10 7 C3.375 7.25 3.375 7.25 0 5 C-0.1875 2.375 -0.1875 2.375 0 0 Z " fill="#C13F4C" transform="translate(69,28)"/>
<path d="M0 0 C2.86697492 1.28519565 4.97607712 2.57129254 7 5 C7 5.66 7 6.32 7 7 C3.5625 6.1875 3.5625 6.1875 0 5 C-0.33 4.01 -0.66 3.02 -1 2 C-0.67 1.34 -0.34 0.68 0 0 Z " fill="#D6848B" transform="translate(41,10)"/>
<path d="M0 0 C2.31 0 4.62 0 7 0 C7.33 1.32 7.66 2.64 8 4 C7.01 4 6.02 4 5 4 C5 4.66 5 5.32 5 6 C4.34 6 3.68 6 3 6 C0 2.53846154 0 2.53846154 0 0 Z " fill="#D48087" transform="translate(18,8)"/>
<path d="M0 0 C2.35953094 2.35953094 2.49141413 3.77895617 3 7 C1.02 7 -0.96 7 -3 7 C-1.125 1.125 -1.125 1.125 0 0 Z " fill="#B7212F" transform="translate(192,27)"/>
<path d="M0 0 C1.32 0.33 2.64 0.66 4 1 C4.66 3.31 5.32 5.62 6 8 C5.01 8 4.02 8 3 8 C0 2.25 0 2.25 0 0 Z " fill="#D88E94" transform="translate(52,13)"/>
<path d="M0 0 C1.99954746 -0.04254356 4.00041636 -0.04080783 6 0 C7 1 7 1 7.0625 3.5625 C7.041875 4.366875 7.02125 5.17125 7 6 C6.01 6 5.02 6 4 6 C4 4.68 4 3.36 4 2 C3.34 1.67 2.68 1.34 2 1 C2 2.98 2 4.96 2 7 C1.67 7 1.34 7 1 7 C0.67 4.69 0.34 2.38 0 0 Z " fill="#B7212F" transform="translate(97,40)"/>
<path d="M0 0 C0.66 0.33 1.32 0.66 2 1 C1.01 3.97 0.02 6.94 -1 10 C-1.99 9.67 -2.98 9.34 -4 9 C-3.49396008 6.83125748 -3.00016187 5.00032373 -2 3 C-1.34 3 -0.68 3 0 3 C0 2.01 0 1.02 0 0 Z " fill="#DA9297" transform="translate(7,11)"/>
<path d="M0 0 C0.99 0 1.98 0 3 0 C3 2.64 3 5.28 3 8 C2.01 8 1.02 8 0 8 C0 5.36 0 2.72 0 0 Z " fill="#C7525D" transform="translate(159,40)"/>
<path d="M0 0 C0.33 1.32 0.66 2.64 1 4 C-3.75 7 -3.75 7 -6 7 C-4.52307692 2.32307692 -4.52307692 2.32307692 -1.875 0.6875 C-1.25625 0.460625 -0.6375 0.23375 0 0 Z " fill="#DA9297" transform="translate(15,4)"/>
<path d="M0 0 C1.65 0 3.3 0 5 0 C4.01 0.495 4.01 0.495 3 1 C3.33 3.31 3.66 5.62 4 8 C2.68 8 1.36 8 0 8 C0 5.36 0 2.72 0 0 Z " fill="#BE3542" transform="translate(202,40)"/>
<path d="M0 0 C2.475 0.99 2.475 0.99 5 2 C4.67 3.98 4.34 5.96 4 8 C2.35 6.35 0.7 4.7 -1 3 C-0.67 2.01 -0.34 1.02 0 0 Z " fill="#BC313F" transform="translate(77,22)"/>
<path d="M0 0 C0.33 0.66 0.66 1.32 1 2 C1.66 2.33 2.32 2.66 3 3 C1.68 4.65 0.36 6.3 -1 8 C-1 7.34 -1 6.68 -1 6 C-1.99 6.33 -2.98 6.66 -4 7 C-3.02391783 4.07175348 -1.89213369 2.38573379 0 0 Z " fill="#BC303E" transform="translate(183,18)"/>
<path d="M0 0 C3.3 0 6.6 0 10 0 C8.515 1.485 8.515 1.485 7 3 C7 2.34 7 1.68 7 1 C4.52733235 1.34444881 4.52733235 1.34444881 2 2 C1.67 2.66 1.34 3.32 1 4 C0.34 3.34 -0.32 2.68 -1 2 C-0.67 1.34 -0.34 0.68 0 0 Z " fill="#F6E7E9" transform="translate(17,0)"/>
<path d="M0 0 C1.9451 2.91765 2.45276317 4.62537285 3 8 C1.68 8 0.36 8 -1 8 C-1.625 5.6875 -1.625 5.6875 -2 3 C-1.34 2.01 -0.68 1.02 0 0 Z " fill="#BC313F" transform="translate(151,18)"/>
<path d="M0 0 C1.32 0.66 2.64 1.32 4 2 C3.34 3.32 2.68 4.64 2 6 C1.01 5.01 0.02 4.02 -1 3 C-0.67 2.01 -0.34 1.02 0 0 Z " fill="#D7878C" transform="translate(46,48)"/>
<path d="M0 0 C0.99 0 1.98 0 3 0 C3 2.64 3 5.28 3 8 C2.01 8 1.02 8 0 8 C0 5.36 0 2.72 0 0 Z " fill="#BF3844" transform="translate(85,40)"/>
<path d="M0 0 C1.98 0.495 1.98 0.495 4 1 C4 1.99 4 2.98 4 4 C2.35 4 0.7 4 -1 4 C-0.67 2.68 -0.34 1.36 0 0 Z " fill="#E2A8AB" transform="translate(14,50)"/>
<path d="M0 0 C2.475 0.99 2.475 0.99 5 2 C4.67 2.99 4.34 3.98 4 5 C2.35 5 0.7 5 -1 5 C-0.67 3.35 -0.34 1.7 0 0 Z " fill="#D5838A" transform="translate(56,32)"/>
<path d="M0 0 C2.97 0.495 2.97 0.495 6 1 C5.67 1.99 5.34 2.98 5 4 C3.68 4 2.36 4 1 4 C0.67 2.68 0.34 1.36 0 0 Z " fill="#E3ADB1" transform="translate(54,36)"/>
<path d="M0 0 C0.66 0.66 1.32 1.32 2 2 C1.75 4.0625 1.75 4.0625 1 6 C0.01 6.495 0.01 6.495 -1 7 C-1.625 4.625 -1.625 4.625 -2 2 C-1.34 1.34 -0.68 0.68 0 0 Z " fill="#BC3340" transform="translate(202,17)"/>
</svg>
